<svg width="2127" height="548" viewBox="0 0 2127 548" fill="none" xmlns="http://www.w3.org/2000/svg">
<g clip-path="url(#clip0_2006_11)">
<path d="M537.66 382.289C462.753 415.798 420.906 395.717 381.739 367.316C338.846 336.214 295.788 327.323 295.788 327.323C295.788 327.323 326.993 304.65 374.535 315.363C329.438 272.565 305.194 226.694 227.61 268.211C323.194 202.194 438.896 155.743 542.694 212.694C387.848 -79.3455 138.505 114.194 110.05 151.058C137.818 139.27 184.31 138.162 206.149 164.107C42.3915 202.534 6.17016 307.635 6.17016 307.635C90.3589 297.391 180.457 357.887 247.435 415.679C213.948 416.728 190.82 418.184 158.345 434.89C218.973 440.498 267.211 488.269 327.72 502.503C409.664 521.784 470.818 493.656 537.66 382.289Z" fill="white"/>
<path d="M473.704 362.508C481.141 361.906 486.886 360.672 490.94 358.806C495.095 356.932 498.254 354.779 500.416 352.348C502.578 349.917 504.434 347.511 505.984 345.129C507.45 342.96 508.65 341.324 509.587 340.223C510.625 339.114 512.096 338.277 513.998 337.713C515.587 337.071 518.16 336.556 521.718 336.165C525.369 335.665 528.978 335.27 532.544 334.982C536.211 334.685 538.767 334.581 540.21 334.669C542.357 334.598 543.867 334.886 544.74 335.533C545.613 336.18 546.246 337.667 546.639 339.994C547.209 343.23 547.675 347.089 548.037 351.571C548.502 356.046 548.764 359.922 548.824 363.198C548.805 364.225 548.671 365.108 548.423 365.846C548.277 366.575 547.854 367.686 547.155 369.178C546.268 370.891 543.523 389.797 540.824 393.194C538.117 396.49 539.258 395.371 533.824 399.194C528.383 402.916 522.702 402.617 513.824 405.694C505.048 408.763 491.467 410.631 478.324 411.694C464.265 412.832 465.838 418.271 453.324 415.694C440.802 413.016 473.4 427.359 460.824 420.194C450.963 412.378 128.124 306.806 317.194 339.694C310.921 325.537 212.958 315.061 211.194 293.259C209.232 269.011 224.208 291.282 231.194 273.694C222.694 237.694 372.925 181.811 387.694 171.694C402.463 161.578 414.988 173.409 436.179 171.694C451.054 170.491 486.376 176.282 495.588 178.613C504.903 180.936 512.073 183.996 517.097 187.794C522.194 190.194 538.026 207.794 540.21 210.694C541.013 211.757 539.83 193.776 540.21 194.668C544.324 205.286 536.574 201.869 536.824 203.694C537.328 206.115 556.824 204.694 544.324 206.694C544.602 211.389 537.147 229.633 536.824 233.248C536.598 235.522 530.785 231.5 529.926 232.287C529.552 232.728 528.867 233.142 527.873 233.53C526.879 233.918 525.363 234.194 523.326 234.359C520.066 234.623 516.39 234.818 512.298 234.944C508.198 234.968 538.887 233.389 536.824 233.248C534.346 233.038 498.748 234.143 497.57 233.521C496.383 232.796 495.163 231.664 493.911 230.125C491.863 227.624 488.457 224.823 483.694 221.722C478.931 218.621 471.405 217.487 461.115 218.319C446.648 219.49 435.181 226.057 426.715 238.023C418.24 249.886 415.013 268.298 417.032 293.259C419.043 318.118 425.426 336.162 436.179 347.393C447.034 358.615 459.542 363.654 473.704 362.508Z" fill="white"/>
</g>
<path d="M653.339 376.078C652.502 376.497 651.455 376.706 650.199 376.706C646.431 376.706 642.663 374.194 638.895 369.17C635.127 364.146 633.243 356.924 633.243 347.504V294.124C633.243 280.936 632.196 271.307 630.103 265.236C628.01 258.956 624.242 255.816 618.799 255.816C613.566 255.816 609.588 257.491 606.867 260.84C604.355 263.98 602.576 267.539 601.529 271.516C600.692 275.494 600.168 278.843 599.959 281.564C599.331 288.054 597.447 292.659 594.307 295.38C591.167 297.892 586.98 299.148 581.747 299.148C576.304 299.148 572.432 297.997 570.129 295.694C567.826 293.392 566.675 290.566 566.675 287.216C566.675 282.192 568.873 277.482 573.269 273.086C577.874 268.481 583.631 264.504 590.539 261.154C597.447 257.596 604.564 254.874 611.891 252.99C619.427 250.897 626.021 249.85 631.673 249.85C640.256 249.85 647.582 252.572 653.653 258.014C659.724 263.457 662.759 272.354 662.759 284.704V340.282C662.759 346.353 663.806 351.063 665.899 354.412C668.202 357.762 671.342 359.436 675.319 359.436C678.25 359.436 681.285 358.704 684.425 357.238C685.262 356.82 685.89 357.238 686.309 358.494C686.937 359.541 686.728 360.274 685.681 360.692L653.339 376.078ZM593.051 376.392C583.84 376.392 576.932 374.404 572.327 370.426C567.931 366.24 565.733 360.692 565.733 353.784C565.733 346.876 567.617 341.643 571.385 338.084C575.153 334.316 580.072 331.386 586.143 329.292C592.214 326.99 598.494 324.687 604.983 322.384L636.383 310.766L637.639 315.476L619.741 323.64C618.066 324.268 615.659 325.315 612.519 326.78C609.379 328.036 606.553 330.025 604.041 332.746C601.529 335.258 600.273 338.922 600.273 343.736C600.273 349.179 602.052 353.261 605.611 355.982C609.17 358.494 612.728 359.75 616.287 359.75C617.962 359.75 619.532 359.541 620.997 359.122C622.672 358.704 624.556 357.762 626.649 356.296L642.349 345.62L642.663 350.644L620.683 366.344C616.078 369.903 611.682 372.52 607.495 374.194C603.308 375.66 598.494 376.392 593.051 376.392ZM696.325 374.194C695.906 374.194 695.697 373.566 695.697 372.31C695.697 371.054 695.906 370.426 696.325 370.426C702.814 370.426 707.21 368.961 709.513 366.03C712.025 362.89 713.281 357.134 713.281 348.76L713.595 189.248C713.595 182.131 712.967 177.002 711.711 173.862C710.455 170.513 708.048 168.838 704.489 168.838C701.768 168.838 697.79 169.99 692.557 172.292C691.929 172.502 691.301 171.978 690.673 170.722C690.045 169.466 689.94 168.734 690.359 168.524L736.517 146.858C736.936 146.649 737.354 146.544 737.773 146.544C738.82 146.544 739.971 147.068 741.227 148.114C742.483 148.952 743.111 149.789 743.111 150.626V348.76C743.111 357.134 744.262 362.89 746.565 366.03C748.868 368.961 753.264 370.426 759.753 370.426C760.59 370.426 761.009 371.054 761.009 372.31C761.009 373.566 760.59 374.194 759.753 374.194C755.776 374.194 750.961 374.09 745.309 373.88C739.866 373.671 734.11 373.566 728.039 373.566C721.968 373.566 716.212 373.671 710.769 373.88C705.326 374.09 700.512 374.194 696.325 374.194ZM842.83 377.962C828.386 377.962 816.454 374.927 807.034 368.856C797.614 362.576 790.602 354.622 785.996 344.992C781.6 335.363 779.402 325.629 779.402 315.79C779.402 305.324 781.6 296.008 785.996 287.844C790.392 279.68 796.149 272.877 803.266 267.434C810.593 261.782 818.652 257.491 827.444 254.56C836.236 251.63 844.924 250.164 853.506 250.164C859.577 250.164 865.648 251.106 871.718 252.99C877.789 254.665 882.813 257.282 886.79 260.84C890.768 264.19 892.756 268.481 892.756 273.714C892.756 277.273 891.291 280.622 888.36 283.762C885.43 286.693 881.138 288.158 875.487 288.158C870.253 288.158 866.171 286.798 863.24 284.076C860.31 281.355 858.007 277.378 856.332 272.144C854.867 267.12 853.192 263.352 851.308 260.84C849.634 258.119 846.284 256.758 841.26 256.758C832.259 256.758 825.037 261.259 819.594 270.26C814.361 279.262 811.744 290.984 811.744 305.428C811.744 315.895 813.314 325.524 816.454 334.316C819.594 342.899 824.723 349.807 831.84 355.04C838.958 360.064 848.482 362.576 860.414 362.576C866.694 362.576 871.928 361.844 876.114 360.378C880.51 358.913 885.325 356.924 890.558 354.412C890.977 353.994 891.5 354.203 892.129 355.04C892.966 355.878 893.175 356.506 892.756 356.924C885.43 363.623 877.894 368.856 870.148 372.624C862.403 376.183 853.297 377.962 842.83 377.962ZM914.989 374.194C914.361 374.194 914.047 373.566 914.047 372.31C914.047 371.054 914.361 370.426 914.989 370.426C921.478 370.426 925.874 368.961 928.177 366.03C930.48 362.89 931.631 357.134 931.631 348.76V292.554C931.631 285.646 930.898 280.622 929.433 277.482C928.177 274.133 925.77 272.458 922.211 272.458C920.746 272.458 918.966 272.772 916.873 273.4C914.989 274.028 912.896 274.866 910.593 275.912C909.756 276.122 909.023 275.598 908.395 274.342C907.976 273.086 908.081 272.354 908.709 272.144L956.123 250.164C956.542 249.955 956.856 249.85 957.065 249.85C958.112 249.85 959.158 250.374 960.205 251.42C961.252 252.467 961.775 253.409 961.775 254.246C961.775 256.758 961.67 260.945 961.461 266.806C961.252 272.668 961.147 281.041 961.147 291.926V348.76C961.147 357.134 962.298 362.89 964.601 366.03C967.113 368.961 971.614 370.426 978.103 370.426C978.731 370.426 979.045 371.054 979.045 372.31C979.045 373.566 978.731 374.194 978.103 374.194C973.917 374.194 969.102 374.09 963.659 373.88C958.217 373.671 952.46 373.566 946.389 373.566C940.528 373.566 934.876 373.671 929.433 373.88C923.99 374.09 919.176 374.194 914.989 374.194ZM945.133 218.764C939.272 218.764 934.562 217.09 931.003 213.74C927.654 210.391 925.979 205.681 925.979 199.61C925.979 194.168 927.654 189.876 931.003 186.736C934.562 183.387 939.272 181.712 945.133 181.712C950.994 181.712 955.495 183.387 958.635 186.736C961.775 189.876 963.345 194.168 963.345 199.61C963.345 212.38 957.274 218.764 945.133 218.764ZM993.393 460.544C992.765 460.544 992.451 459.916 992.451 458.66C992.451 457.404 992.765 456.776 993.393 456.776C1000.72 456.776 1005.43 455.416 1007.52 452.694C1009.83 449.973 1010.98 444.112 1010.98 435.11V289.728C1010.98 283.239 1010.24 278.529 1008.78 275.598C1007.31 272.458 1004.7 270.888 1000.93 270.888C999.255 270.888 997.161 271.307 994.649 272.144C992.137 272.772 989.416 273.819 986.485 275.284C985.648 275.703 984.915 275.284 984.287 274.028C983.659 272.772 983.555 272.04 983.973 271.83L1028.56 250.164C1028.98 249.955 1029.5 249.85 1030.13 249.85C1032.43 249.85 1034.63 252.362 1036.73 257.386C1039.03 262.41 1040.18 269.632 1040.18 279.052V435.11C1040.18 440.972 1040.81 445.472 1042.06 448.612C1043.53 451.752 1046.25 453.846 1050.23 454.892C1054.2 456.148 1060.17 456.776 1068.13 456.776C1068.75 456.776 1069.07 457.404 1069.07 458.66C1069.07 459.916 1068.75 460.544 1068.13 460.544C1062.26 460.544 1055.67 460.44 1048.34 460.23C1041.02 460.021 1033.27 459.916 1025.11 459.916C1019.25 459.916 1013.49 460.021 1007.84 460.23C1002.39 460.44 997.58 460.544 993.393 460.544ZM1067.18 378.276C1059.02 378.276 1052.01 377.648 1046.15 376.392C1040.49 375.136 1033.69 373.148 1025.74 370.426L1036.73 350.644C1041.33 356.296 1046.25 361.006 1051.48 364.774C1056.93 368.542 1064.15 370.426 1073.15 370.426C1082.99 370.426 1090.73 366.135 1096.39 357.552C1102.04 348.97 1104.86 335.258 1104.86 316.418C1104.86 299.672 1100.99 287.216 1093.25 279.052C1085.5 270.679 1076.39 266.492 1065.93 266.492C1058.18 266.492 1051.48 268.481 1045.83 272.458C1040.18 276.436 1034.63 281.46 1029.19 287.53L1026.05 283.762C1036.73 271.412 1046.88 262.515 1056.51 257.072C1066.35 251.63 1076.39 248.908 1086.65 248.908C1095.44 248.908 1103.61 251.211 1111.14 255.816C1118.68 260.212 1124.75 266.702 1129.36 275.284C1134.17 283.867 1136.58 294.334 1136.58 306.684C1136.58 320.082 1134.38 331.386 1129.98 340.596C1125.8 349.807 1120.25 357.238 1113.34 362.89C1106.43 368.333 1098.9 372.206 1090.73 374.508C1082.78 377.02 1074.93 378.276 1067.18 378.276ZM1152.81 374.194C1152.39 374.194 1152.18 373.566 1152.18 372.31C1152.18 371.054 1152.39 370.426 1152.81 370.426C1159.3 370.426 1163.7 368.961 1166 366.03C1168.51 362.89 1169.77 357.134 1169.77 348.76V189.248C1169.77 182.131 1169.14 177.002 1167.88 173.862C1166.63 170.513 1164.22 168.838 1160.66 168.838C1157.73 168.838 1153.75 169.99 1148.73 172.292C1148.1 172.502 1147.47 171.978 1146.84 170.722C1146.22 169.466 1146.11 168.734 1146.53 168.524L1192.37 146.858C1192.79 146.649 1193.11 146.544 1193.32 146.544C1193.53 146.544 1193.73 146.544 1193.94 146.544C1194.99 146.544 1196.04 147.068 1197.08 148.114C1198.34 148.952 1198.97 149.789 1198.97 150.626V348.76C1198.97 357.134 1200.12 362.89 1202.42 366.03C1204.93 368.961 1209.43 370.426 1215.92 370.426C1216.76 370.426 1217.18 371.054 1217.18 372.31C1217.18 373.566 1216.76 374.194 1215.92 374.194C1211.74 374.194 1206.92 374.09 1201.48 373.88C1196.25 373.671 1190.59 373.566 1184.52 373.566C1178.45 373.566 1172.7 373.671 1167.25 373.88C1161.81 374.09 1157 374.194 1152.81 374.194ZM1237.28 374.194C1236.86 374.194 1236.65 373.566 1236.65 372.31C1236.65 371.054 1236.86 370.426 1237.28 370.426C1243.77 370.426 1248.16 368.961 1250.46 366.03C1252.98 362.89 1254.23 357.134 1254.23 348.76V303.544C1254.23 281.355 1245.65 270.26 1228.48 270.26C1222.2 270.26 1215.71 271.83 1209.02 274.97C1202.53 278.11 1197.4 282.402 1193.63 287.844L1191.75 284.076C1199.07 273.61 1207.34 265.236 1216.55 258.956C1225.76 252.467 1235.81 249.222 1246.7 249.222C1258.42 249.222 1267.42 252.886 1273.7 260.212C1280.19 267.539 1283.43 276.959 1283.43 288.472V348.76C1283.43 357.134 1284.59 362.89 1286.89 366.03C1289.4 368.961 1293.9 370.426 1300.39 370.426C1301.23 370.426 1301.65 371.054 1301.65 372.31C1301.65 373.566 1301.23 374.194 1300.39 374.194C1296.2 374.194 1291.39 374.09 1285.95 373.88C1280.71 373.671 1275.06 373.566 1268.99 373.566C1262.92 373.566 1257.16 373.671 1251.72 373.88C1246.28 374.09 1241.46 374.194 1237.28 374.194ZM1379.77 377.962C1366.16 377.962 1354.54 375.136 1344.91 369.484C1335.49 363.832 1328.27 356.401 1323.25 347.19C1318.43 337.77 1316.02 327.722 1316.02 317.046C1316.02 304.696 1319.06 293.496 1325.13 283.448C1331.2 273.4 1339.57 265.341 1350.25 259.27C1360.93 253.2 1373.17 250.164 1386.99 250.164C1399.34 250.164 1409.18 252.99 1416.5 258.642C1424.04 264.294 1427.81 273.505 1427.81 286.274C1427.81 288.996 1427.6 291.298 1427.18 293.182C1426.76 295.066 1425.82 296.008 1424.35 296.008H1394.21C1394.63 284.076 1393.48 274.552 1390.76 267.434C1388.03 260.108 1382.8 256.444 1375.06 256.444C1366.68 256.444 1359.98 260.736 1354.96 269.318C1350.14 277.901 1347.74 289.31 1347.74 303.544C1347.74 315.686 1349.62 326.152 1353.39 334.944C1357.16 343.736 1362.7 350.54 1370.03 355.354C1377.36 360.169 1386.36 362.576 1397.04 362.576C1403.32 362.576 1408.55 361.844 1412.74 360.378C1417.13 358.704 1421.95 356.506 1427.18 353.784C1427.6 353.366 1428.12 353.575 1428.75 354.412C1429.59 355.25 1429.8 355.982 1429.38 356.61C1421.63 364.356 1413.68 369.903 1405.51 373.252C1397.56 376.392 1388.98 377.962 1379.77 377.962ZM1336.75 296.322L1336.43 290.356L1405.2 289.1V296.008L1336.75 296.322ZM1487.77 289.1L1485.26 285.018C1493.42 275.598 1500.33 268.376 1505.98 263.352C1511.64 258.328 1516.45 254.874 1520.43 252.99C1524.41 250.897 1527.96 249.85 1531.1 249.85C1535.5 249.85 1540 251.525 1544.61 254.874C1549.42 258.014 1551.83 262.201 1551.83 267.434C1551.83 271.83 1550.47 275.494 1547.75 278.424C1545.23 281.146 1541.68 282.506 1537.07 282.506C1532.67 282.506 1529.32 281.355 1527.02 279.052C1524.93 276.75 1522.94 274.552 1521.06 272.458C1519.38 270.156 1516.87 269.004 1513.52 269.004C1512.05 269.004 1510.38 269.528 1508.5 270.574C1506.82 271.412 1504.31 273.296 1500.96 276.226C1497.82 278.948 1493.42 283.239 1487.77 289.1ZM1449.46 374.194C1448.84 374.194 1448.52 373.566 1448.52 372.31C1448.52 371.054 1448.84 370.426 1449.46 370.426C1455.95 370.426 1460.35 368.961 1462.65 366.03C1464.95 362.89 1466.11 357.134 1466.11 348.76V289.728C1466.11 283.239 1465.37 278.529 1463.91 275.598C1462.44 272.458 1459.93 270.888 1456.37 270.888C1454.49 270.888 1452.29 271.307 1449.78 272.144C1447.27 272.772 1444.44 273.819 1441.3 275.284C1440.46 275.703 1439.83 275.284 1439.42 274.028C1439 272.772 1439 272.04 1439.42 271.83L1483.06 250.478C1484.32 250.06 1485.05 249.85 1485.26 249.85C1487.56 249.85 1489.87 252.362 1492.17 257.386C1494.47 262.41 1495.62 269.632 1495.62 279.052V348.76C1495.62 354.203 1496.46 358.599 1498.13 361.948C1499.81 365.088 1502.63 367.286 1506.61 368.542C1510.8 369.798 1516.45 370.426 1523.57 370.426C1524.41 370.426 1524.82 371.054 1524.82 372.31C1524.82 373.566 1524.41 374.194 1523.57 374.194C1517.92 374.194 1511.43 374.09 1504.1 373.88C1496.98 373.671 1489.24 373.566 1480.86 373.566C1475 373.566 1469.35 373.671 1463.91 373.88C1458.47 374.09 1453.65 374.194 1449.46 374.194Z" fill="white"/>
<path d="M1638.09 405.194V280.194H1599.49V256.194H1703.49V280.194H1665.49V405.194H1638.09ZM1720.09 405.194V256.194H1819.09V280.194H1747.29V318.394H1815.09V342.394H1747.29V381.194H1819.09V405.194H1720.09ZM1909.03 407.594C1898.37 407.594 1888.5 405.661 1879.43 401.794C1870.5 397.928 1862.63 392.528 1855.83 385.594C1849.17 378.661 1843.97 370.528 1840.23 361.194C1836.5 351.861 1834.63 341.661 1834.63 330.594C1834.63 319.528 1836.43 309.328 1840.03 299.994C1843.77 290.528 1848.97 282.394 1855.63 275.594C1862.43 268.661 1870.37 263.328 1879.43 259.594C1888.5 255.728 1898.37 253.794 1909.03 253.794C1919.7 253.794 1929.23 255.594 1937.63 259.194C1946.17 262.794 1953.37 267.594 1959.23 273.594C1965.1 279.461 1969.3 285.928 1971.83 292.994L1947.43 304.394C1944.63 296.928 1939.9 290.794 1933.23 285.994C1926.57 281.061 1918.5 278.594 1909.03 278.594C1899.7 278.594 1891.43 280.794 1884.23 285.194C1877.17 289.594 1871.63 295.661 1867.63 303.394C1863.77 311.128 1861.83 320.194 1861.83 330.594C1861.83 340.994 1863.77 350.128 1867.63 357.994C1871.63 365.728 1877.17 371.794 1884.23 376.194C1891.43 380.594 1899.7 382.794 1909.03 382.794C1918.5 382.794 1926.57 380.394 1933.23 375.594C1939.9 370.661 1944.63 364.461 1947.43 356.994L1971.83 368.394C1969.3 375.461 1965.1 381.994 1959.23 387.994C1953.37 393.861 1946.17 398.594 1937.63 402.194C1929.23 405.794 1919.7 407.594 1909.03 407.594ZM1993.91 405.194V256.194H2021.11V321.194H2084.51V256.194H2111.91V405.194H2084.51V345.194H2021.11V405.194H1993.91Z" fill="white"/>
<defs>
<clipPath id="clip0_2006_11">
<rect width="533.333" height="533.333" fill="white" transform="translate(0 533.133) rotate(-88.4326)"/>
</clipPath>
</defs>
</svg>
